<svg width="45" height="32" viewBox="0 0 45 32" fill="none" xmlns="http://www.w3.org/2000/svg">
<path d="M0.657762 0.654443H44.3876V31.3681H0.657762V0.654443ZM0 32H45V0H0V32Z" fill="white"/>
<path d="M7.34777 23.741C7.27972 23.4702 7.12095 22.9286 6.3271 22.9286C5.85079 22.9286 5.14767 23.2671 5.14767 24.576C5.14767 25.411 5.51057 26.1783 6.3271 26.1783C6.87146 26.1783 7.23436 25.8623 7.34777 25.2756H8.32307C8.11894 26.2911 7.46117 26.9907 6.30442 26.9907C5.05694 26.9907 4.17236 26.1557 4.17236 24.5534C4.17236 22.9286 5.1023 22.1162 6.30442 22.1162C7.68799 22.1162 8.25502 23.064 8.32307 23.7636H7.34777V23.741Z" fill="white"/>
<path d="M9.50176 24.7337L10.6585 23.4248H11.7699L10.5451 24.7563L11.7926 26.855H10.7039L9.88735 25.3881L9.50176 25.7718V26.855H8.61719V23.4248H9.50176V24.7337Z" fill="white"/>
<path d="M15.1057 25.1413C15.1057 26.3825 14.2665 26.9467 13.3592 26.9467C12.452 26.9467 11.5901 26.3825 11.5901 25.1413C11.5901 23.9001 12.4293 23.3359 13.3592 23.3359C14.2892 23.3359 15.1057 23.9001 15.1057 25.1413ZM12.52 25.1413C12.52 25.5926 12.6561 26.2019 13.3592 26.2019C14.0624 26.2019 14.1758 25.5926 14.1758 25.1639C14.1758 24.7351 14.0397 24.1258 13.3592 24.1258C12.6788 24.1258 12.52 24.69 12.52 25.1413Z" fill="white"/>
<path d="M18.5066 23.4248V26.855H17.5994V24.1469H16.6241V25.2076C16.6241 26.5165 16.2158 26.9453 15.5807 26.9453C15.422 26.9453 15.1725 26.9227 15.0364 26.8776V26.2005C15.0591 26.2231 15.1725 26.2231 15.3086 26.2231C15.5807 26.2231 15.7168 26.0877 15.7168 25.0496V23.4474H18.5066V23.4248Z" fill="white"/>
<path d="M19.8682 24.7337L21.0023 23.4248H22.1137L20.9115 24.7563L22.159 26.855H21.0703L20.2538 25.3881L19.8682 25.7718V26.855H18.9609V23.4248H19.8682V24.7337Z" fill="white"/>
<path d="M25.4717 25.1413C25.4717 26.3825 24.6325 26.9467 23.7252 26.9467C22.7953 26.9467 21.9561 26.3825 21.9561 25.1413C21.9561 23.9001 22.7953 23.3359 23.7252 23.3359C24.6325 23.3359 25.4717 23.9001 25.4717 25.1413ZM22.8633 25.1413C22.8633 25.5926 22.9994 26.2019 23.7025 26.2019C24.4057 26.2019 24.5191 25.5926 24.5191 25.1639C24.5191 24.7351 24.383 24.1258 23.7025 24.1258C22.9994 24.1032 22.8633 24.69 22.8633 25.1413Z" fill="white"/>
<path d="M25.7644 23.4248H27.3294C28.1006 23.4248 28.6676 23.7407 28.6676 24.3049C28.6676 24.7111 28.3955 24.9594 28.0325 25.0496C28.3955 25.1399 28.781 25.3656 28.781 25.9072C28.781 26.5391 28.3047 26.855 27.5109 26.855H25.7871V23.4248H25.7644ZM26.649 24.824H27.2387C27.5336 24.824 27.7604 24.7111 27.7604 24.4403C27.7604 24.1695 27.5562 24.0567 27.2614 24.0567H26.6717V24.824H26.649ZM26.649 26.2457H27.3067C27.647 26.2457 27.8511 26.1328 27.8511 25.7943C27.8511 25.501 27.6243 25.3656 27.3067 25.3656H26.649V26.2457Z" fill="white"/>
<path d="M32.3638 25.1413C32.3638 26.3825 31.5246 26.9467 30.6173 26.9467C29.6874 26.9467 28.8481 26.3825 28.8481 25.1413C28.8481 23.9001 29.6874 23.3359 30.6173 23.3359C31.5246 23.3359 32.3638 23.9001 32.3638 25.1413ZM29.7781 25.1413C29.7781 25.5926 29.9142 26.2019 30.6173 26.2019C31.3204 26.2019 31.4338 25.5926 31.4338 25.1639C31.4338 24.7351 31.2977 24.1258 30.6173 24.1258C29.9142 24.1032 29.7781 24.69 29.7781 25.1413Z" fill="white"/>
<path d="M10.7527 21.3265C11.5239 21.3265 13.4291 21.191 14.8354 20.153V20.9428H17.6933V17.5126L18.8954 16.2714L21.5037 20.9428H24.9286L20.9821 14.263L24.8379 10.0655H21.3223L17.7159 14.1953V6.27426H14.8581V7.53802C13.9735 6.61277 12.5672 5.89062 10.3671 5.89062C5.60404 5.89062 4.69679 8.7792 4.69679 10.404C4.69679 12.6382 5.8989 13.8568 7.9856 14.3758L10.9569 15.0754C12.5219 15.459 13.6333 15.7524 13.6333 16.9033C13.6333 18.4379 12.0002 18.7989 10.5486 18.7989C7.87219 18.7989 7.41856 17.2418 7.41856 16.4068H4.46997C4.46997 18.2348 5.39991 21.3265 10.7527 21.3265ZM12.7033 12.5705L9.11967 11.6903C8.50727 11.5549 7.55465 11.3067 7.55465 10.1558C7.55465 8.8469 8.9609 8.39556 10.1403 8.39556C12.8167 8.39556 13.0662 9.95268 13.1343 10.6297H14.8354V13.3603C14.223 12.9992 13.4745 12.7736 12.7033 12.5705Z" fill="white"/>
</svg>
