<svg width="34" height="42" viewBox="0 0 34 42" fill="none" xmlns="http://www.w3.org/2000/svg">
<path d="M33.6296 11.0675C31.9375 6.07626 28.9765 0 28.9765 0L24.9579 2.3871L29.7167 12.6951C29.7167 12.6951 30.3512 15.2992 28.6592 16.1672C26.9672 17.0352 25.4867 15.9502 25.4867 15.9502L20.1991 4.6657L16.815 6.61879L18.084 10.0909C18.084 10.0909 17.0265 8.35486 14.4885 8.13785C11.9504 7.92084 9.62389 9.65692 9.62389 9.65692L3.70179 13.1291L10.7872 29.0793L15.0172 26.9092L12.2677 20.8329L13.7482 19.9649L19.0358 24.9561L23.4774 22.569L17.9783 16.9267C17.9783 16.9267 19.6703 14.5396 19.0358 12.8036L22.4199 18.6628C22.4199 18.6628 25.8039 23.22 30.6685 19.5308C30.6685 19.5308 35.3216 16.0587 33.6296 11.0675ZM13.854 16.1672L11.1044 17.6863L9.62389 14.4311L10.8929 13.5631C10.8929 13.5631 12.7964 12.044 13.854 13.7801C14.9115 15.5162 13.854 16.1672 13.854 16.1672ZM18.5197 30.8869L19.3531 28.5367H1.58676L2.37355 30.7567C1.60149 31.0046 0.941501 31.528 0.513201 32.2322C0.0849008 32.9364 -0.0833761 33.7746 0.0388655 34.5951C0.161107 35.4156 0.565779 36.1641 1.17955 36.7048C1.79331 37.2455 2.57556 37.5427 3.38454 37.5426C3.44164 37.5426 3.49663 37.5426 3.55374 37.5426L4.2874 38.5083L4.29798 42H16.6418V38.5083L17.1894 37.6403C17.274 37.6403 17.3586 37.6533 17.4453 37.6533C18.2479 37.6519 19.0238 37.358 19.6347 36.8239C20.2455 36.2898 20.6515 35.5503 20.7801 34.7375C20.9087 33.9247 20.7515 33.0915 20.3367 32.3865C19.9219 31.6816 19.2764 31.1509 18.5155 30.8891L18.5197 30.8869Z" fill="white"/>
</svg>
