<svg width="202" height="24" viewBox="0 0 202 24" fill="none" xmlns="http://www.w3.org/2000/svg">
<path fill-rule="evenodd" clip-rule="evenodd" d="M108 23.248H105.06L100.044 17.2574L95.0533 23.248H92.1325L98.5804 15.5082L92.4657 8.20756H95.406L100.045 13.7484L104.662 8.20756H107.583L101.51 15.4977L108 23.248ZM63.6155 23.624C58.9987 23.624 57.6119 22.496 57.6119 22.496V0.687347H59.8633V8.61515C60.6963 8.20305 61.897 7.83155 63.6155 7.83155C68.1752 7.83155 71.8704 11.1585 71.8704 15.7278C71.8704 20.297 68.1752 23.624 63.6155 23.624ZM63.6155 10.0876C62.0531 10.0876 60.7713 10.6877 59.8633 11.3059V20.6159C59.8633 20.6159 61.0715 21.3679 63.6155 21.3679C66.931 21.3679 69.6191 19.0502 69.6191 15.7278C69.6191 12.4053 66.931 10.0876 63.6155 10.0876ZM50.1074 0.687347H52.3588V23.248H50.1074V0.687347ZM44.8543 0.687347V23.248H42.6029V0.687347H44.8543ZM36.1776 4.07144C35.1405 4.07144 34.3015 3.22918 34.3015 2.19139C34.3015 1.1536 35.1405 0.311336 36.1776 0.311336C37.2132 0.311336 38.0537 1.1536 38.0537 2.19139C38.0537 3.22918 37.2132 4.07144 36.1776 4.07144ZM28.7197 23.248L20.8399 15.3518L27.9692 8.20756H31.1526L24.0233 15.3518L31.9031 23.248H28.7197ZM18.5886 23.248V0.687347H20.8399V15.3518V23.248H18.5886ZM15.0225 17.1115C15.0225 20.8806 12.0252 23.6165 7.26584 23.6165C4.186 23.6165 1.78907 22.0914 0 20.3467L1.59245 18.5839C3.08134 20.0053 4.83439 21.3875 7.23432 21.3875C9.90141 21.3875 12.7771 19.8895 12.7771 17.1972C12.7771 14.9637 11.0031 13.5063 7.27935 12.3557C3.03481 11.0532 0.879526 9.29047 0.879526 5.97556C0.879526 2.69374 3.65168 0 7.60054 0C10.5498 0 12.3974 1.26039 14.1925 2.87122L12.6285 4.61139C11.0526 3.21263 9.5517 2.26509 7.7101 2.26509C5.42574 2.26509 3.1759 3.74055 3.1759 5.86576C3.1759 7.79244 4.27906 9.01824 8.17538 10.2139C11.7445 11.3164 15.0225 13.0235 15.0225 17.1115ZM37.3498 23.248H35.0985V8.20756H37.3498V23.248ZM82.7519 24C78.1922 24 74.497 20.297 74.497 15.7278C74.497 11.1585 78.1922 7.45554 82.7519 7.45554C87.3116 7.45554 91.0069 11.1585 91.0069 15.7278C91.0069 20.297 87.3116 24 82.7519 24ZM82.7519 9.7116C79.4364 9.7116 76.7483 12.4053 76.7483 15.7278C76.7483 19.0502 79.4364 21.7439 82.7519 21.7439C86.0674 21.7439 88.7555 19.0502 88.7555 15.7278C88.7555 12.4053 86.0674 9.7116 82.7519 9.7116Z" fill="black"/>
<path d="M120 1.78005H123.642L130.293 18.8747L136.734 1.78005H140.346V23.7238H137.727V5.24808L130.594 23.7238H129.782L122.408 5.24808V23.7238H120V1.78005Z" fill="black"/>
<path d="M152.389 24C151.266 24 150.242 23.8056 149.32 23.4169C148.397 23.0281 147.594 22.4859 146.912 21.7903C146.23 21.0742 145.698 20.2148 145.317 19.2123C144.955 18.2097 144.775 17.0946 144.775 15.867V15.6215C144.775 14.4143 144.955 13.3095 145.317 12.3069C145.678 11.2839 146.179 10.4143 146.821 9.69821C147.484 8.96164 148.266 8.39898 149.169 8.01023C150.072 7.60102 151.065 7.39642 152.149 7.39642C153.052 7.39642 153.924 7.54987 154.767 7.85678C155.63 8.14322 156.392 8.60358 157.054 9.23785C157.717 9.87212 158.238 10.7008 158.62 11.7238C159.021 12.7263 159.221 13.9437 159.221 15.376V16.2046H147.363C147.423 18.046 147.875 19.4578 148.718 20.4399C149.56 21.4015 150.794 21.8824 152.42 21.8824C154.887 21.8824 156.282 20.9514 156.603 19.0895H159.101C158.82 20.7059 158.078 21.9335 156.874 22.7724C155.67 23.5908 154.175 24 152.389 24ZM156.663 14.1483C156.543 12.491 156.081 11.3043 155.279 10.5882C154.496 9.87212 153.453 9.51407 152.149 9.51407C150.864 9.51407 149.811 9.9335 148.988 10.7724C148.186 11.5908 147.674 12.7161 147.453 14.1483H156.663Z" fill="black"/>
<path d="M169.336 24C168.313 24 167.36 23.8261 166.477 23.4783C165.614 23.11 164.862 22.5882 164.22 21.913C163.598 21.2174 163.106 20.3785 162.745 19.3964C162.404 18.3939 162.234 17.2685 162.234 16.0205V15.7749C162.234 14.5473 162.414 13.422 162.775 12.399C163.136 11.376 163.638 10.4962 164.28 9.75959C164.922 9.00256 165.695 8.41944 166.598 8.01023C167.5 7.60102 168.494 7.39642 169.577 7.39642C170.901 7.39642 171.975 7.68287 172.798 8.25576C173.62 8.80818 174.262 9.47315 174.724 10.2506V0H177.222V23.7238H174.724V20.9616C174.503 21.3504 174.202 21.7289 173.821 22.0972C173.44 22.4655 173.008 22.7928 172.527 23.0793C172.065 23.3453 171.554 23.5601 170.992 23.7238C170.45 23.9079 169.898 24 169.336 24ZM169.607 21.8824C170.33 21.8824 171.012 21.7596 171.654 21.5141C172.296 21.2685 172.848 20.9003 173.309 20.4092C173.771 19.8977 174.132 19.2634 174.393 18.5064C174.674 17.7289 174.814 16.8286 174.814 15.8056V15.5601C174.814 13.4936 174.363 11.9693 173.46 10.9872C172.577 10.0051 171.363 9.51407 169.818 9.51407C168.253 9.51407 167.029 10.046 166.146 11.11C165.263 12.1739 164.822 13.688 164.822 15.6522V15.8977C164.822 16.9207 164.942 17.8107 165.183 18.5678C165.444 19.3043 165.785 19.9182 166.206 20.4092C166.648 20.9003 167.159 21.2685 167.741 21.5141C168.323 21.7596 168.945 21.8824 169.607 21.8824Z" fill="black"/>
<path d="M182.69 7.67263H185.188V23.7238H182.69V7.67263ZM183.894 4.32737C183.432 4.32737 183.041 4.16368 182.72 3.83632C182.399 3.50895 182.238 3.10997 182.238 2.63939C182.238 2.1688 182.399 1.76982 182.72 1.44246C183.041 1.11509 183.432 0.951407 183.894 0.951407C184.355 0.951407 184.746 1.11509 185.067 1.44246C185.388 1.76982 185.549 2.1688 185.549 2.63939C185.549 3.10997 185.388 3.50895 185.067 3.83632C184.746 4.16368 184.355 4.32737 183.894 4.32737Z" fill="black"/>
<path d="M194.596 24C193.874 24 193.192 23.9079 192.55 23.7238C191.907 23.5396 191.346 23.2532 190.864 22.8644C190.403 22.4757 190.031 21.9847 189.75 21.3913C189.49 20.798 189.359 20.0921 189.359 19.2737C189.359 18.3529 189.58 17.5754 190.021 16.9412C190.463 16.3069 191.045 15.7954 191.767 15.4066C192.509 15.0179 193.352 14.7417 194.295 14.578C195.258 14.3939 196.241 14.3018 197.245 14.3018H199.502V13.1356C199.502 11.8465 199.241 10.9258 198.719 10.3734C198.198 9.80051 197.335 9.51407 196.131 9.51407C193.964 9.51407 192.76 10.4757 192.519 12.399H190.021C190.102 11.4783 190.322 10.7008 190.683 10.0665C191.065 9.43223 191.536 8.92072 192.098 8.53197C192.68 8.12276 193.322 7.83632 194.024 7.67263C194.747 7.48849 195.489 7.39642 196.251 7.39642C196.994 7.39642 197.716 7.48849 198.418 7.67263C199.121 7.83632 199.733 8.14322 200.254 8.59335C200.776 9.02302 201.197 9.60614 201.518 10.3427C201.839 11.0793 202 12.0102 202 13.1356V23.7238H199.502V21.6982C198.92 22.4552 198.248 23.0281 197.485 23.4169C196.723 23.8056 195.76 24 194.596 24ZM194.837 21.9744C195.499 21.9744 196.111 21.8926 196.673 21.7289C197.255 21.5448 197.746 21.289 198.148 20.9616C198.569 20.6343 198.9 20.2353 199.141 19.7647C199.382 19.2737 199.502 18.7212 199.502 18.1074V16.1125H197.335C196.552 16.1125 195.82 16.1739 195.138 16.2967C194.476 16.399 193.894 16.5729 193.392 16.8184C192.911 17.0639 192.529 17.3913 192.249 17.8005C191.988 18.1893 191.857 18.6803 191.857 19.2737C191.857 20.1125 192.078 20.7775 192.519 21.2685C192.961 21.7391 193.733 21.9744 194.837 21.9744Z" fill="black"/>
</svg>
