<svg width="23" height="14" viewBox="0 0 23 14" fill="none" xmlns="http://www.w3.org/2000/svg">
<path fill-rule="evenodd" clip-rule="evenodd" d="M11.0561 13.5021H12.4004C12.6294 13.4773 12.8452 13.3816 13.0184 13.2283C13.1443 13.0454 13.2089 12.8266 13.2027 12.604C13.2027 12.604 13.181 10.6983 14.0159 10.4135C14.8507 10.1288 15.9132 12.2535 17.0407 13.075C17.4613 13.4277 18.0034 13.5971 18.5477 13.5459L21.5617 13.5021C21.5617 13.5021 23.1446 13.4035 22.3965 12.1002C21.8067 11.0693 21.0478 10.1472 20.1523 9.37305C18.255 7.53305 18.5152 7.82876 20.7919 4.64162C22.1797 2.70305 22.7326 1.50924 22.5592 1.00543C22.2514 0.690668 21.8048 0.558227 21.3774 0.654955L17.9731 0.67686C17.8241 0.653527 17.6717 0.680474 17.5394 0.753526C17.4071 0.852621 17.3025 0.984702 17.2359 1.13686C16.8872 2.09508 16.4668 3.02507 15.9782 3.91876C14.4712 6.61305 13.8641 6.75543 13.6147 6.59115C13.0401 6.19686 13.181 5.02495 13.181 4.18162C13.181 1.57495 13.5605 0.479717 12.4546 0.194955C11.933 0.0689614 11.397 0.0137138 10.8609 0.0306693C9.91044 -0.0580597 8.95201 0.0462088 8.04205 0.337336C7.65175 0.534479 7.35902 0.972574 7.54333 1.00543C7.9302 1.04513 8.28723 1.23331 8.54077 1.53115C8.77512 2.03414 8.8902 2.58539 8.87686 3.14115C8.87686 3.14115 9.08286 6.21876 8.41067 6.6021C7.95531 6.86495 7.32649 6.32829 5.97127 3.88591C5.51628 3.03215 5.11436 2.15061 4.76784 1.24638C4.70432 1.09527 4.60798 0.960523 4.48595 0.852098C4.3317 0.739206 4.15352 0.664205 3.96555 0.63305L0.734709 0.654955C0.49484 0.653763 0.261672 0.734853 0.073362 0.884955C-0.0162543 1.07402 -0.0241077 1.29219 0.0516785 1.48734C0.0516785 1.48734 2.58865 7.69734 5.45087 10.8297C6.85582 12.4882 8.89564 13.4607 11.0561 13.5021Z" fill="white"/>
</svg>
